# xmcd CD database file
#
# Track frame offsets:
#	150
#	21743
#	52979
#	73312
#	89907
#	107432
#	127024
#	147884
#	164831
#	180632
#	195489
#	209884
#	226880
#	243745
#	261672
#
# Disc length: 3727 seconds
#
# Revision: 0
# Processed by: cddbd v1.5.2PL0 Copyright (c) Steve Scherf et al.
# Submitted via: CDex 1.50
#
DISCID=f70e8d0f
DTITLE=Oscar d'Leon - Grandes Exitos
DYEAR=1900
DGENRE=Salsa
TTITLE0=Que Se Sienta
TTITLE1=El Son De Celia Y Oscar
TTITLE2=Y Mi Ngra Esta Cansada
TTITLE3=Sin tu Carino
TTITLE4=Yo Quisiera
TTITLE5=Que Cosa Mas Linda
TTITLE6=Detalles
TTITLE7=A El
TTITLE8=Josefa Matia
TTITLE9=Que Bailen To's
TTITLE10=Frenesi
TTITLE11=El Que Siembra Su Maiz
TTITLE12=Bonito Y Sabroso
TTITLE13=Mi Mujer Es Una Bomba
TTITLE14=Mujer De Arena
EXTD=
EXTT0=
EXTT1=
EXTT2=
EXTT3=
EXTT4=
EXTT5=
EXTT6=
EXTT7=
EXTT8=
EXTT9=
EXTT10=
EXTT11=
EXTT12=
EXTT13=
EXTT14=
PLAYORDER=
